<svg width="424" height="177" xmlns="http://www.w3.org/2000/svg" xmlns:xlink="http://www.w3.org/1999/xlink" xml:space="preserve" overflow="hidden"><defs><clipPath id="clip0"><rect x="375" y="230" width="424" height="177"/></clipPath></defs><g clip-path="url(#clip0)" transform="translate(-375 -230)"><path d="M76.9965 75.7474 96.1825 75.7474 96.1825 101.993 76.9965 101.993Z" fill="#E7F6F0" transform="matrix(1 0 0 1.00056 375 230.001)"/><path d="M160.87 75.7474 184.646 75.7474 184.646 101.993 160.87 101.993Z" fill="#E7F6F0" transform="matrix(1 0 0 1.00056 375 230.001)"/><path d="M288.954 75.7614 314.372 75.7614 314.372 102.021 288.954 102.021Z" fill="#E7F6F0" transform="matrix(1 0 0 1.00056 375 230.001)"/><path d="M166.695 106.582 140.435 106.582 140.435 140.618C140.435 147.425 145.951 152.926 152.744 152.926L166.681 152.926 166.681 106.568Z" fill="#E7F6F0" transform="matrix(1 0 0 1.00056 375 230.001)"/><path d="M89.6842 152.926 103.621 152.926C110.428 152.926 115.93 147.411 115.93 140.618L115.93 106.582 89.6702 106.582 89.6702 152.94Z" fill="#E7F6F0" transform="matrix(1 0 0 1.00056 375 230.001)"/><path d="M226.989 101.993 241.698 101.993C249.811 101.993 256.393 95.4105 256.393 87.2982L256.393 24.814 210.232 24.8421 210.232 51.0737 230.147 51.0737 230.147 75.7474 210.232 75.7474 210.232 91.8877C210.232 100 203.649 106.582 195.537 106.582L179.396 106.582 179.396 152.94 190.961 152.94C199.074 152.94 205.642 146.358 205.642 138.26L205.642 117.544 208.281 122.119 238.596 122.119 226.989 102.007Z" fill="#E7F6F0" transform="matrix(1 0 0 1.00056 375 230.001)"/><path d="M25.3754 97.4175 25.3754 104.028C25.3754 104.028 27.1298 97.4175 35.1018 97.4175L51.6211 97.4175 51.6211 51.0737 62.9474 51.0737C70.7088 51.0737 76.9965 44.786 76.9965 37.0246L76.9965 24.814 14.0491 24.814C6.28772 24.814 0 31.1018 0 38.8632L0 51.0737 25.3754 51.0737 25.3754 97.4175Z" fill="#E7F6F0" transform="matrix(1 0 0 1.00056 375 230.001)"/><path d="M269.095 37.9088 269.095 79.4105C269.095 79.4105 270.316 71.1719 279.972 71.1719L295.354 71.1719 295.354 24.814 282.189 24.814C274.961 24.814 269.095 30.6807 269.095 37.9088Z" fill="#E7F6F0" transform="matrix(1 0 0 1.00056 375 230.001)"/><path d="M269.095 89.3053 269.095 126.681 210.933 126.681 220.604 143.439C224 149.305 230.26 152.926 237.039 152.926L282.26 152.926C289.488 152.926 295.354 147.06 295.354 139.832L295.354 75.7614 282.653 75.7614C275.172 75.7614 269.109 81.8246 269.109 89.3053Z" fill="#E7F6F0" transform="matrix(1 0 0 1.00056 375 230.001)"/><path d="M205.642 90.7088 205.642 24.8421 193.319 24.8421C185.558 25.2351 179.382 31.6491 179.382 39.5088L179.382 102.007 194.358 102.007C200.589 102.007 205.642 96.9544 205.642 90.7228Z" fill="#E7F6F0" transform="matrix(1 0 0 1.00056 375 230.001)"/><path d="M166.695 38.8632C166.695 31.3544 160.8 25.207 153.375 24.8421 153.137 24.8421 152.898 24.814 152.66 24.814L103.747 24.814C103.509 24.814 103.27 24.814 103.032 24.8421 95.607 25.207 89.7123 31.3544 89.7123 38.8632L89.7123 101.993 166.723 101.993 166.723 38.8632ZM140.435 75.7474 115.944 75.7474 115.944 51.0877 140.435 51.0877 140.435 75.7474Z" fill="#E7F6F0" transform="matrix(1 0 0 1.00056 375 230.001)"/><path d="M57.5298 126.681 51.6211 126.681 51.6211 101.993 36.6596 101.993C30.4281 101.993 25.3754 107.046 25.3754 113.277L25.3754 152.926 83.7895 152.926 83.7895 75.7474 57.5298 75.7474 57.5298 126.681Z" fill="#E7F6F0" transform="matrix(1 0 0 1.00056 375 230.001)"/><path d="M410.835 24.814C403.607 24.814 397.74 30.6807 397.74 37.9088L397.74 137.979C397.74 137.979 397.74 137.951 397.74 137.951L397.74 152.94 410.891 152.94C418.133 152.94 423.986 147.074 423.986 139.846L423.986 129.754 423.986 129.754 423.986 24.814 410.821 24.814Z" fill="#E7F6F0" transform="matrix(1 0 0 1.00056 375 230.001)"/><path d="M153.572 164.926 153.572 176.912 165.558 176.912C169.193 176.912 172.14 173.965 172.14 170.33L172.14 158.344 160.154 158.344C156.519 158.344 153.572 161.291 153.572 164.926Z" fill="#E7F6F0" transform="matrix(1 0 0 1.00056 375 230.001)"/><path d="M175.354 164.926 175.354 176.912 187.34 176.912C190.975 176.912 193.923 173.965 193.923 170.33L193.923 158.344 181.937 158.344C178.302 158.344 175.354 161.291 175.354 164.926Z" fill="#E7F6F0" transform="matrix(1 0 0 1.00056 375 230.001)"/><path d="M34.4 164.926 34.4 176.912 46.386 176.912C50.0211 176.912 52.9684 173.965 52.9684 170.33L52.9684 158.344 40.9825 158.344C37.3474 158.344 34.4 161.291 34.4 164.926Z" fill="#E7F6F0" transform="matrix(1 0 0 1.00056 375 230.001)"/><path d="M56.1965 164.926 56.1965 176.912 68.1825 176.912C71.8175 176.912 74.7649 173.965 74.7649 170.33L74.7649 158.344 62.7789 158.344C59.1439 158.344 56.1965 161.291 56.1965 164.926Z" fill="#E7F6F0" transform="matrix(1 0 0 1.00056 375 230.001)"/><path d="M126.582 11.986 126.582 0 114.596 0C110.961 0 108.014 2.94737 108.014 6.58246L108.014 18.5684 120 18.5684C123.635 18.5684 126.582 15.6211 126.582 11.986Z" fill="#E7F6F0" transform="matrix(1 0 0 1.00056 375 230.001)"/><path d="M148.379 11.986 148.379 0 136.393 0C132.758 0 129.811 2.94737 129.811 6.58246L129.811 18.5684 141.796 18.5684C145.432 18.5684 148.379 15.6211 148.379 11.986Z" fill="#E7F6F0" transform="matrix(1 0 0 1.00056 375 230.001)"/><path d="M372.842 24.814 334.302 24.814 334.302 6.49825 320.758 6.49825C313.74 6.49825 308.042 12.1965 308.042 19.2281L308.042 102.021 372.211 102.021C379.298 102.021 385.039 96.2667 385.039 89.193L385.039 37.0105C385.039 30.2737 379.579 24.8281 372.842 24.8281ZM358.793 75.7614 334.302 75.7614 334.302 51.0737 358.793 51.0737 358.793 75.7614Z" fill="#E7F6F0" transform="matrix(1 0 0 1.00056 375 230.001)"/><path d="M385.039 152.575 385.039 99.1298C385.039 99.1298 383.144 106.596 372.674 106.596L358.793 106.596 358.793 126.681 334.302 126.681 334.302 106.596 308.042 106.596 308.042 152.926 354.933 152.926 363.832 168.351C366.049 172.197 370.175 174.582 374.625 174.582L397.74 174.582 385.039 152.575Z" fill="#E7F6F0" transform="matrix(1 0 0 1.00056 375 230.001)"/></g></svg>